<svg width="42" height="42" viewBox="0 0 42 42" fill="none" xmlns="http://www.w3.org/2000/svg">
<path d="M12.25 5.25V21C12.25 21.9625 13.0375 22.75 14 22.75H17.5V35.2625C17.5 36.155 18.6725 36.47 19.1275 35.7L28.21 20.125C28.366 19.8602 28.4491 19.5588 28.4509 19.2515C28.4527 18.9441 28.3731 18.6418 28.2203 18.3752C28.0674 18.1086 27.8467 17.8871 27.5806 17.7334C27.3144 17.5797 27.0123 17.4992 26.705 17.5H22.75L27.1075 5.8625C27.2087 5.59878 27.2441 5.31438 27.2107 5.0339C27.1773 4.75342 27.0761 4.48528 26.9159 4.25267C26.7556 4.02006 26.5412 3.82997 26.291 3.69883C26.0408 3.5677 25.7625 3.49945 25.48 3.5H14C13.0375 3.5 12.25 4.2875 12.25 5.25Z" fill="#333333"/>
</svg>
